PathFileType	4	(X/Y/Z)	s10c0103.trc
DataRate	CameraRate	NumFrames	NumMarkers	Units	OrigDataRate	OrigDataStartFrame	OrigNumFrames
200	200	4	50	mm	200	1000	2000
Frame#	Time	racr			lacr			c7			jug			rlel			rdr			llel			ldr			s2			lic			ric			lasi			rasi			rpsi			lpsi			rgt			lgt			rth1			rth2			rth3			rth4			rlfc			rmfc			rsh1			rsh2			rsh3			rsh4			rlmal			rmmal			rcal			rtoe			rmt5			lth1			lth2			lth4			lth3			llfc			lmfc			llmal			lmmal			lcal			lmt5			lsh1			lsh2			lsh3			lsh4			ltoe			SBIKE			LBIKE			RBIKE			
		X1	Y1	Z1	X2	Y2	Z2	X3	Y3	Z3	X4	Y4	Z4	X5	Y5	Z5	X6	Y6	Z6	X7	Y7	Z7	X8	Y8	Z8	X9	Y9	Z9	X10	Y10	Z10	X11	Y11	Z11	X12	Y12	Z12	X13	Y13	Z13	X14	Y14	Z14	X15	Y15	Z15	X16	Y16	Z16	X17	Y17	Z17	X18	Y18	Z18	X19	Y19	Z19	X20	Y20	Z20	X21	Y21	Z21	X22	Y22	Z22	X23	Y23	Z23	X24	Y24	Z24	X25	Y25	Z25	X26	Y26	Z26	X27	Y27	Z27	X28	Y28	Z28	X29	Y29	Z29	X30	Y30	Z30	X31	Y31	Z31	X32	Y32	Z32	X33	Y33	Z33	X34	Y34	Z34	X35	Y35	Z35	X36	Y36	Z36	X37	Y37	Z37	X38	Y38	Z38	X39	Y39	Z39	X40	Y40	Z40	X41	Y41	Z41	X42	Y42	Z42	X43	Y43	Z43	X44	Y44	Z44	X45	Y45	Z45	X46	Y46	Z46	X47	Y47	Z47	X48	Y48	Z48	X49	Y49	Z49	X50	Y50	Z50	
1000	5.0000	405.016373	1280.083830	-60.467648	451.051903	1286.984862	-365.881698	372.899589	1331.061822	-222.655029	392.914260	1190.030404	-231.311856	464.931916	1022.511219	6.057357	640.065627	879.684572	-58.468465	489.537989	1031.585910	-497.397562	636.385874	882.750247	-417.561836	-126.243790	1077.687709	-234.040452	25.364942	1098.491976	-405.181873	54.720480	1111.012213	-113.686036	61.515904	1013.563956	-378.828417	72.023167	1034.426573	-121.087777	-91.945451	1141.370828	-185.891972	-88.172336	1144.738647	-300.988030	-14.926757	1003.632275	-45.272633	-67.960730	947.479121	-420.757483	104.035481	932.335579	-40.876221	190.930700	922.957445	-63.081364	259.455039	872.719628	-70.889663	199.905777	956.436785	-79.285383	349.786240	816.900497	-98.645171	317.215031	791.975773	-212.460718	265.853881	744.852689	-51.653642	217.712137	669.916564	-59.463647	143.292508	627.616244	-50.523947	234.832719	652.554801	-89.082922	62.063194	566.035825	-52.561985	80.716968	557.072946	-135.768746	20.003802	596.546459	-100.873774	129.855396	379.456639	-103.313952	65.722165	435.784901	-41.044537	6.550087	834.299620	-433.604963	77.777612	785.272745	-423.534734	105.716181	808.869660	-422.122712	112.614050	705.211683	-404.136422	191.545491	624.408028	-388.287666	193.541681	620.652969	-275.476924	135.424660	249.661148	-382.817077	155.055386	256.846083	-303.870737	92.822186	204.774559	-336.653950	269.491876	191.206978	-404.869597	141.715659	507.773871	-417.685256	166.269638	424.732013	-405.100492	143.221887	338.828754	-397.098584	196.910595	428.363660	-382.435206	343.603829	241.745193	-349.361727	-217.605803	831.529272	-215.242306	-103.836528	80.202113	-418.374526	-103.764536	80.427035	-18.361540	
1001	5.0050	403.589824	1280.376066	-58.364675	451.363682	1287.565027	-362.068747	371.676824	1331.151033	-220.903073	393.371004	1190.368833	-229.537001	464.261845	1022.646291	8.046259	639.779127	880.693516	-58.840841	490.956057	1033.516436	-496.790731	636.501527	882.838872	-417.465558	-126.412382	1077.084365	-238.575445	28.514052	1097.508655	-406.572476	52.614226	1111.997596	-114.937971	63.402103	1012.834247	-378.131496	70.362733	1035.775683	-121.473647	-93.263825	1140.502274	-190.640998	-87.252001	1144.059671	-305.009665	-17.786860	1006.036952	-47.486268	-64.771789	946.896176	-422.592465	105.417889	938.039281	-41.326446	190.808373	930.369914	-64.268872	260.981719	882.304990	-71.490718	198.347493	963.633453	-80.811154	354.237702	829.332318	-99.831668	322.681555	803.888320	-214.388742	271.401475	755.923350	-52.806442	224.717084	680.267444	-60.384812	151.058288	636.814297	-51.405439	242.235174	663.064630	-89.808688	70.754548	573.960780	-52.839790	90.940171	565.347951	-135.354108	28.577137	604.336546	-101.030849	137.994412	386.914620	-103.542154	74.183368	443.683750	-41.508346	7.000211	833.707210	-434.351573	76.188928	782.027393	-423.398154	104.545501	804.248843	-420.869599	107.885445	700.767077	-403.934381	183.686355	616.980249	-387.555875	182.506462	612.476684	-273.378543	127.827528	243.539063	-382.109262	147.663595	250.257510	-303.300417	85.181833	199.297421	-336.064644	261.694192	183.717036	-404.581875	134.121121	502.016565	-416.800026	158.940334	419.036884	-404.039024	136.134160	333.086964	-396.390838	189.371649	422.835331	-381.109331	336.434866	233.216328	-349.169005	-217.614958	831.593678	-215.333432	-103.852213	80.207780	-418.372547	-103.782372	80.432625	-18.364620	
1002	5.0100	402.264636	1280.635741	-56.328121	451.579849	1288.152495	-358.377206	370.629186	1331.247130	-219.326574	393.777239	1190.694400	-227.890921	463.545905	1022.899210	9.821185	639.603659	881.324185	-58.422462	492.017255	1035.348393	-496.317008	636.607517	882.925150	-417.435427	-126.464353	1076.541261	-242.747870	31.742011	1096.622998	-407.654905	50.522133	1113.241978	-116.239025	65.377692	1012.343316	-377.011402	68.557308	1037.577520	-121.869597	-94.516550	1140.256920	-194.271779	-86.222393	1143.362099	-308.853207	-20.671194	1008.995953	-49.717931	-61.574443	946.490676	-424.288433	104.138450	942.599064	-42.349792	190.512944	937.897347	-64.565876	262.042484	891.821327	-71.841415	197.022726	971.156525	-81.633015	358.329468	841.920250	-101.080667	327.977829	815.757670	-216.120393	277.093050	767.098434	-53.942437	231.671079	690.600704	-61.147058	158.696982	645.857914	-52.349398	249.628991	673.301299	-90.275763	79.227216	581.450531	-53.239791	98.464817	572.729891	-136.354005	36.563563	611.463151	-101.063395	146.106282	394.266617	-104.113480	83.027933	451.174677	-41.998924	7.594092	833.248160	-435.041461	74.786912	779.111784	-423.557595	103.802863	800.388722	-420.223959	103.571841	696.659099	-404.337847	176.017281	610.724828	-387.150825	172.848214	606.323863	-271.252768	120.090669	238.393046	-381.499319	140.110984	244.420201	-302.807650	77.285368	194.613571	-335.609431	253.408395	176.804385	-404.393160	126.649090	496.916105	-416.148478	151.444905	413.930923	-403.065120	128.958619	328.016594	-395.959664	181.714005	417.762802	-379.910607	328.914357	225.317593	-348.956326	-217.617252	831.608039	-215.385360	-103.869607	80.236843	-418.412426	-103.842254	80.486700	-18.410695	
1003	5.0150	400.958373	1280.922353	-54.342276	451.746535	1288.708925	-354.848627	369.614626	1331.187946	-217.943560	394.388672	1190.900495	-226.272267	463.067363	1022.927112	11.334580	639.526327	881.807600	-57.289105	492.994244	1036.907351	-495.323379	636.734553	883.002573	-417.426151	-126.348359	1076.065441	-246.530416	34.919363	1095.754351	-408.418099	48.069588	1114.632494	-117.535170	67.520073	1012.012550	-375.582340	66.705140	1039.649670	-122.211727	-93.630219	1139.294147	-200.200376	-85.076807	1142.759095	-312.478885	-23.710133	1012.378084	-51.652427	-58.642026	946.108488	-425.833020	103.569406	947.343246	-43.445702	189.877453	945.300092	-65.300456	262.713413	901.204975	-71.942868	195.432157	978.634133	-82.299720	361.966485	854.783358	-101.937961	333.212403	827.762561	-217.896103	282.390835	778.220616	-54.767963	238.487707	700.874443	-61.798339	166.176303	654.760861	-53.269446	256.792754	684.046511	-91.106262	87.117491	588.648362	-53.693751	108.756111	581.448966	-137.552508	43.752316	618.332218	-101.889482	156.257673	402.484070	-103.554101	92.191666	458.149259	-42.418760	8.163923	832.868482	-435.741937	73.542440	776.645860	-424.010683	103.190478	797.044711	-419.770289	99.744170	693.179282	-405.280870	168.561899	605.704620	-386.884870	161.386543	600.502495	-270.703928	112.202131	234.056700	-381.134762	132.420105	239.439475	-302.572642	69.001149	190.725755	-335.174224	244.822508	170.411127	-404.147038	119.352557	492.565741	-415.983386	143.965479	409.686925	-402.580866	121.543427	323.739108	-395.793802	174.108069	413.413380	-379.259279	320.966778	218.151437	-349.406632	-217.598388	831.617948	-215.416720	-103.908360	80.229331	-418.423552	-103.895674	80.518166	-18.448240	
